<?xml version="1.0" encoding="UTF-8"?>
<svg id="_Слой_1" data-name="Слой 1" xmlns="http://www.w3.org/2000/svg" xmlns:xlink="http://www.w3.org/1999/xlink" viewBox="0 0 2940.03 3545.78">
  <defs>
    <style>
      .cls-1 {
        fill: #4a4f62;
      }

      .cls-1, .cls-2, .cls-3, .cls-4, .cls-5 {
        stroke-width: 0px;
      }

      .cls-6 {
        stroke: #3d5c2b;
        stroke-width: 6.1px;
      }

      .cls-6, .cls-7, .cls-8 {
        stroke-miterlimit: 10;
      }

      .cls-6, .cls-8 {
        fill: none;
      }

      .cls-2 {
        fill: #3d5c2b;
      }

      .cls-3 {
        fill: url(#Water_1);
      }

      .cls-4 {
        fill: url(#Foliage_3);
      }

      .cls-7 {
        fill: #fff;
        stroke-width: 1.52px;
      }

      .cls-7, .cls-8 {
        stroke: #fff;
      }

      .cls-5 {
        fill: #22b6cc;
      }

      .cls-8 {
        stroke-linecap: round;
        stroke-width: 18.29px;
      }
    </style>
    <linearGradient id="Water_1" data-name="Water 1" x1="1469.9" y1="1122.13" x2="2395.25" y2="1122.13" gradientUnits="userSpaceOnUse">
      <stop offset="0" stop-color="#ddedf2"/>
      <stop offset=".5" stop-color="#bbdde6"/>
      <stop offset=".73" stop-color="#b0d8e1"/>
      <stop offset="1" stop-color="#aad5df"/>
    </linearGradient>
    <linearGradient id="Foliage_3" data-name="Foliage 3" x1="1469.9" y1="2273.41" x2="2352.4" y2="2273.41" gradientUnits="userSpaceOnUse">
      <stop offset="0" stop-color="#99c169"/>
      <stop offset=".5" stop-color="#679632"/>
      <stop offset="1" stop-color="#507d26"/>
    </linearGradient>
  </defs>
  <path class="cls-5" d="M1470.02,513.89V0l1451.27,559.6s111.54,905.39-209.56,1679.68c-400.73,966.33-1241.37,1306.5-1241.37,1306.5v-547.79s670.31-413.22,849.15-898.94c184.87-502.1,140.23-1223.42,140.23-1223.42l-989.71-361.74Z"/>
  <path class="cls-1" d="M1470.02,513.89V0L18.74,559.6s-111.54,905.39,209.56,1679.68c400.73,966.33,1242.05,1306.5,1242.05,1306.5v-547.79s-670.99-413.22-849.83-898.94c-184.87-502.1-140.23-1223.42-140.23-1223.42l989.71-361.74Z"/>
  <g>
    <path class="cls-3" d="M2352.4,1647.61h-882.5V596.66l903.5,348.87s61.06,259.58-21,702.08Z"/>
    <path class="cls-8" d="M1671.27,1239.31c21.65-29.33,57.11-67.28,104.03-70.59,63.84-4.5,94.2,58.97,169.05,76.17,39.31,9.03,100.18,7.43,187.63-50.16"/>
    <path class="cls-8" d="M1668.15,1396.51c21.79-29.33,57.49-67.28,104.74-70.59,64.27-4.5,94.84,58.97,170.2,76.17,39.57,9.03,100.86,7.43,188.9-50.16"/>
    <line class="cls-6" x1="1469.9" y1="1647.61" x2="1460.85" y2="1647.61"/>
    <path class="cls-2" d="M1469.9,596.66v2302.56c-381.57-223.55-726.61-557.98-840.86-1027.92-141.55-581.96-60.46-929.65-60.46-929.65l901.32-344.98Z"/>
    <path class="cls-4" d="M2352.4,1647.61c-12.54,67.71-22.85,158.29-41.66,235.47-114.25,469.94-490.79,805.95-840.84,1016.13v-1251.61h882.5Z"/>
    <g>
      <path class="cls-7" d="M1010.48,1576.85c-12.95-27.5-19.42-55.32-18.15-84.9.16-3.79-3.61-9.89-7.06-11.31-13.83-5.71-28.14-10.33-42.49-14.62-4.32-1.29-9.35-.2-14.56-.2,4.23-16.37,12.12-15.66,65.39,3.77,5.79-13.88,10.22-28.55,17.69-41.46,16.69-28.83,40.74-47.48,75.87-47.16,2.98.03,5.93,3.23,8.9,4.96-2.8,1.95-5.5,5.43-8.43,5.63-40.91,2.8-63.29,27.7-75.91,63.7-19.12,54.56-2.01,118.99,41.44,152.21,19.48-37.55,42.32-73.58,41.04-117.37-.38-12.89-10.27-25.49-15.7-38.27-1.67-3.93-2.99-8.01-4.47-12.01,4.5,1.49,10.24,1.7,13.29,4.68,17.61,17.23,22.97,39.31,17.75,62.32-6.03,26.54-15.41,52.31-23.35,78.46,1.28-.52,4.25-1.41,6.94-2.84,22.97-12.23,47.47-17.71,73.43-18.8,5.95-.25,13.74-4.68,17.15-9.63,21.66-31.42,33.09-65.48,22.95-104.16-.77-2.94.22-6.35.39-9.54,1.57-.62,3.15-1.23,4.72-1.85,2.72,5.56,6.75,10.86,7.94,16.73,5.77,28.42.95,55.56-11.96,81.33-4.37,8.73-9.2,17.23-13.83,25.86,26.79,12.45,65.3,4.23,84.68-17.86,2.58-2.94,4.32-6.8,7.31-9.13,2.6-2.02,6.42-2.48,9.7-3.63-.22,3.53.81,7.87-.86,10.48-12.79,20.02-30.34,34.07-54.74,35.11-21.98.93-44.1-.36-66.12-1.38-42.12-1.95-77.73,12.4-108.88,42.18,2.07,4.29,3.95,8.65,6.21,12.81,28.44,52.19,27.95,104.43-1.96,155.44-8.43,14.37-7.8,24.42,3.14,35.96,11.11,11.72,21.54,24.13,31.69,36.7,2.22,2.75,2.01,7.48,2.91,11.3-3.77-1.15-8.83-1.13-11.1-3.63-14.76-16.27-28.92-33.09-44.07-50.64-10.22,11.83-20.28,23.59-30.48,35.22-4.85,5.53-9.57,11.3-15.13,16.03-2.8,2.38-7.36,2.7-11.12,3.96.84-3.8,1.27-7.75,2.66-11.34.82-2.13,3.14-3.7,4.79-5.51,7.6-8.34,14.94-16.94,22.87-24.96,14.74-14.9,20.14-28.05,8.9-50.53-24.28-48.53-17.99-98.18,8.1-145.12,5.26-9.47,5.73-15.38-2.55-23.91-22.94-23.6-52.22-27.02-82.34-29.18-27.82-1.99-56.31-1.11-83.23-7.16-20.74-4.66-39.63-17.87-59.06-27.84-3.92-2.01-6.53-6.54-9.75-9.91.85-1.65,1.7-3.29,2.55-4.94,4.74,2.03,10.2,3.15,14.11,6.22,26.53,20.83,56.69,30.15,93.86,30.33-5.23-5.66-8.6-9.21-11.87-12.85-25.68-28.62-34-61.19-21.6-98.08,1.28-3.81,5.63-6.59,8.55-9.85.76,4.28,3.15,9.06,2.02,12.77-10.78,35.5-2.5,65.63,23.8,91.44,12.27,12.04,24.92,19.98,43.78,19.29,17.58-.65,35.37,4.12,54.24,6.66ZM1053.3,1634.12c-32.29,35.09-34.78,120.42-4.5,154.21,34.08-40.18,36.26-114.62,4.5-154.21Z"/>
      <path class="cls-7" d="M1137.15,1680.43c38.19,5.94,72.37,5.14,104.54-11.09,24.5-12.36,34.2-35.2,39.19-60.71,1.02-5.22,3.03-10.25,5.08-17.01,11.96,15.36.95,52.32-18.51,72.84-18.91,19.94-44.09,25.53-72.48,30.46,7.39,5.06,12.58,7.71,16.63,11.57,10.58,10.07,21.18,20.22,30.64,31.31,3.06,3.59,2.6,10.19,3.75,15.41-4.55-3.13-10.46-5.31-13.44-9.55-25.5-36.28-62.41-48.61-104.33-51.03-6.34-.37-12.91-.49-18.88-2.32-3.32-1.01-7.79-5.3-7.81-8.14-.02-2.92,4.21-7.27,7.52-8.52,7.26-2.74,15.32-3.29,22.67-5.85,26.71-9.32,45.34-25.14,44.36-56.53-.09-2.95,3.17-6.01,4.88-9.02,2.1,3.22,5.8,6.33,6.05,9.69,1.77,23.54-7.81,41.91-27.21,55.08-6.31,4.29-13.14,7.82-22.65,13.4Z"/>
      <path class="cls-7" d="M946.03,1678.31c-13.27-12.7-26.99-22.19-35.44-35.12-6.39-9.78-6.57-23.88-8.34-36.22-.44-3.04,3.71-6.74,7.27-12.67,2.18,5.46,3.59,7.22,3.43,8.83-3.83,38.05,23.03,55.9,52.94,65.85,7.31,2.43,21.14-1.19,19.7,12.01-1.5,13.73-14.82,7.16-22.93,8.58-16.83,2.95-34.35,2.92-50.73,7.3-25.76,6.88-46.91,21.65-61.98,44.41-1.94,2.93-6.49,4.12-9.83,6.11.13-4.26-1.51-10.16.67-12.49,11.62-12.4,24.06-24.06,36.54-35.63,3.45-3.2,8.01-5.19,13.75-8.8-10.41-2.68-18.93-4.57-27.26-7.06-40.26-12.06-65.9-45.08-67.07-86.72-.09-3.18,2.68-6.43,4.12-9.65,2.52,2.89,6.33,5.4,7.32,8.74,3.04,10.28,3.03,21.91,7.85,31.09,6.21,11.81,14.03,24.41,24.54,32,31.64,22.86,68.45,21.43,105.46,19.45Z"/>
      <path class="cls-7" d="M1046.99,1561.8c-18.2-25.74-18.65-63.77-1.74-85.75,19.3,19.59,20.43,61.22,1.74,85.75Z"/>
      <path class="cls-7" d="M1116.04,1440.37c-8.81-28.58-2.6-46.48,19.82-59.27,12.49,23.74,4.49,48.65-19.82,59.27Z"/>
      <path class="cls-7" d="M928.03,1485.88c27.35,9.79,38.31,28.48,32.6,54.2-25.84-7.51-38.08-27.3-32.6-54.2Z"/>
      <path class="cls-7" d="M850.67,1531.6c-23.91-16.52-29.76-34.26-20.28-59.65,23.32,8.78,32.31,34.15,20.28,59.65Z"/>
      <path class="cls-7" d="M1102.73,1643.57c4.58-28.24,22.27-43.1,47.45-40.66-.78,24.54-18.15,39.82-47.45,40.66Z"/>
      <path class="cls-7" d="M894.77,1655.82c-26.81.83-42.39-13.11-47.37-41.42,25.9-1.83,43.52,13.23,47.37,41.42Z"/>
      <path class="cls-7" d="M831.38,1704.18c-26.78,8.79-44.55,2.03-59.09-21.68,20.92-12.77,45-4.22,59.09,21.68Z"/>
      <path class="cls-7" d="M1243.64,1534.02c-10.13-24.09,1.34-52.4,22.84-58.38,9.69,25.03,1.88,45.68-22.84,58.38Z"/>
      <path class="cls-7" d="M1267.99,1726.68c2.79-29.57,18.71-45.55,43.72-44.92,0,26.03-15.5,42.35-43.72,44.92Z"/>
      <path class="cls-7" d="M909.64,1758.99c8.89-24.62,30.39-34.29,57.12-26.7-7.45,23.39-25.94,32.24-57.12,26.7Z"/>
      <path class="cls-7" d="M960.96,1432.71c-4.35-28.89,7.24-47.68,32.46-53.75,4.6,27.94-6.13,46.21-32.46,53.75Z"/>
      <path class="cls-7" d="M993.84,1643.46c-25.72,1.41-42.46-13.06-47.18-40.78,25.23-3.35,44.07,12.93,47.18,40.78Z"/>
      <path class="cls-7" d="M1135.22,1541.06c-3.22-29.61,7.43-47.21,32.27-53.32,5.99,27.29-6.71,48.28-32.27,53.32Z"/>
      <path class="cls-7" d="M1246.85,1613.76c-3.57,30.6-14.96,43.45-41.11,47.37-2.71-26.51,14.03-46.31,41.11-47.37Z"/>
      <path class="cls-7" d="M1128.8,1720.21c26.5-8.49,47.54,1.4,56.98,26.01-23.96,9.06-44.88-.23-56.98-26.01Z"/>
    </g>
    <g>
      <path class="cls-2" d="M1711.48,2735.36l-3.42-398.64-106.58,54.81v423.2l58.17-41.17c22.47-11.59,30.25-25.01,51.82-38.2Z"/>
      <polyline class="cls-2" points="1755.13 2340.14 1755.13 1986.91 1919.57 1892.51 1919.57 2413.23"/>
      <path class="cls-2" d="M1987.12,2478.62c11.26-13.38,25.53-30.45,37.58-43.1,7.09-7.44,31.58-41.13,36.47-44.71v-434.35l-103.91-63.95v620.18c10.21-10.96,20-22.35,29.87-34.07Z"/>
      <path class="cls-2" d="M1844.61,2623.07c29.46-23.48,73.99-71.08,74.96-71.84v-65.68l-164.44-72.32v286.78c24.4-16.46,66.29-58.44,89.48-76.93Z"/>
    </g>
  </g>
</svg>